%TF.GenerationSoftware,KiCad,Pcbnew,10.0.4*%
%TF.CreationDate,2026-07-10T12:09:22+08:00*%
%TF.ProjectId,PL18_ELRS,504c3138-5f45-44c5-9253-2e6b69636164,rev?*%
%TF.SameCoordinates,Original*%
%TF.FileFunction,Drillmap*%
%TF.FilePolarity,Positive*%
%FSLAX45Y45*%
G04 Gerber Fmt 4.5, Leading zero omitted, Abs format (unit mm)*
G04 Created by KiCad (PCBNEW 10.0.4) date 2026-07-10 12:09:22*
%MOMM*%
%LPD*%
G01*
G04 APERTURE LIST*
%ADD10C,0.100000*%
%ADD11C,0.200000*%
G04 APERTURE END LIST*
D10*
X3490000Y-6900000D02*
X3490000Y-2850000D01*
X3490000Y-6900000D02*
G75*
G02*
X3640000Y-7050000I0J-150000D01*
G01*
X3640000Y-2850000D02*
X3490000Y-2850000D01*
X3640000Y-3100000D02*
X3640000Y-2850000D01*
X3690000Y-3150000D02*
G75*
G02*
X3640000Y-3100000I0J50000D01*
G01*
X4140000Y-3150000D02*
X3690000Y-3150000D01*
X4190000Y-2500000D02*
X4190000Y-3100000D01*
X4190000Y-2500000D02*
X5410000Y-2500000D01*
X4190000Y-3100000D02*
G75*
G02*
X4140000Y-3150000I-50000J0D01*
G01*
X5410000Y-3100000D02*
X5410000Y-2500000D01*
X5460000Y-3150000D02*
G75*
G02*
X5410000Y-3100000I0J50000D01*
G01*
X5910645Y-3150000D02*
X5460000Y-3150000D01*
X5960000Y-2850000D02*
X5960000Y-3100000D01*
X5960000Y-3100000D02*
G75*
G02*
X5910000Y-3150000I-50000J0D01*
G01*
X5960000Y-7050000D02*
X3640000Y-7050000D01*
X5960000Y-7050000D02*
G75*
G02*
X6110000Y-6900000I150000J0D01*
G01*
X6110000Y-2850000D02*
X5960000Y-2850000D01*
X6110000Y-2850000D02*
X6110000Y-6900000D01*
D11*
D10*
X3680000Y-6680000D02*
X3720000Y-6720000D01*
X3720000Y-6680000D02*
X3680000Y-6720000D01*
X3780000Y-3910000D02*
X3820000Y-3950000D01*
X3820000Y-3910000D02*
X3780000Y-3950000D01*
X3780000Y-6380000D02*
X3820000Y-6420000D01*
X3820000Y-6380000D02*
X3780000Y-6420000D01*
X3850000Y-3490000D02*
X3890000Y-3530000D01*
X3890000Y-3490000D02*
X3850000Y-3530000D01*
X3850000Y-3620000D02*
X3890000Y-3660000D01*
X3890000Y-3620000D02*
X3850000Y-3660000D01*
X3880000Y-6880000D02*
X3920000Y-6920000D01*
X3920000Y-6880000D02*
X3880000Y-6920000D01*
X3980000Y-3880000D02*
X4020000Y-3920000D01*
X4020000Y-3880000D02*
X3980000Y-3920000D01*
X4000000Y-4575800D02*
X4040000Y-4615800D01*
X4040000Y-4575800D02*
X4000000Y-4615800D01*
X4000000Y-4829800D02*
X4040000Y-4869800D01*
X4040000Y-4829800D02*
X4000000Y-4869800D01*
X4080000Y-3480000D02*
X4120000Y-3520000D01*
X4120000Y-3480000D02*
X4080000Y-3520000D01*
X4080000Y-5350000D02*
X4120000Y-5390000D01*
X4120000Y-5350000D02*
X4080000Y-5390000D01*
X4105000Y-4150000D02*
X4145000Y-4190000D01*
X4145000Y-4150000D02*
X4105000Y-4190000D01*
X4150000Y-4390000D02*
X4190000Y-4430000D01*
X4190000Y-4390000D02*
X4150000Y-4430000D01*
X4160000Y-4610000D02*
X4200000Y-4650000D01*
X4200000Y-4610000D02*
X4160000Y-4650000D01*
X4180000Y-5480000D02*
X4220000Y-5520000D01*
X4220000Y-5480000D02*
X4180000Y-5520000D01*
X4180000Y-5780000D02*
X4220000Y-5820000D01*
X4220000Y-5780000D02*
X4180000Y-5820000D01*
X4180000Y-6180000D02*
X4220000Y-6220000D01*
X4220000Y-6180000D02*
X4180000Y-6220000D01*
X4180000Y-6580000D02*
X4220000Y-6620000D01*
X4220000Y-6580000D02*
X4180000Y-6620000D01*
X4180200Y-4829800D02*
X4220200Y-4869800D01*
X4220200Y-4829800D02*
X4180200Y-4869800D01*
X4205000Y-5080000D02*
X4245000Y-5120000D01*
X4245000Y-5080000D02*
X4205000Y-5120000D01*
X4240000Y-2740000D02*
X4280000Y-2780000D01*
X4280000Y-2740000D02*
X4240000Y-2780000D01*
X4240000Y-5230000D02*
X4280000Y-5270000D01*
X4280000Y-5230000D02*
X4240000Y-5270000D01*
X4280000Y-2580000D02*
X4320000Y-2620000D01*
X4320000Y-2580000D02*
X4280000Y-2620000D01*
X4280000Y-3060000D02*
X4320000Y-3100000D01*
X4320000Y-3060000D02*
X4280000Y-3100000D01*
X4280000Y-4390000D02*
X4320000Y-4430000D01*
X4320000Y-4390000D02*
X4280000Y-4430000D01*
X4360000Y-4900000D02*
X4400000Y-4940000D01*
X4400000Y-4900000D02*
X4360000Y-4940000D01*
X4380000Y-3240000D02*
X4420000Y-3280000D01*
X4420000Y-3240000D02*
X4380000Y-3280000D01*
X4430000Y-4055000D02*
X4470000Y-4095000D01*
X4470000Y-4055000D02*
X4430000Y-4095000D01*
X4480000Y-3620000D02*
X4520000Y-3660000D01*
X4520000Y-3620000D02*
X4480000Y-3660000D01*
X4480000Y-5280000D02*
X4520000Y-5320000D01*
X4520000Y-5280000D02*
X4480000Y-5320000D01*
X4480000Y-5670000D02*
X4520000Y-5710000D01*
X4520000Y-5670000D02*
X4480000Y-5710000D01*
X4480000Y-6080000D02*
X4520000Y-6120000D01*
X4520000Y-6080000D02*
X4480000Y-6120000D01*
X4540000Y-4670000D02*
X4580000Y-4710000D01*
X4580000Y-4670000D02*
X4540000Y-4710000D01*
X4550000Y-4830000D02*
X4590000Y-4870000D01*
X4590000Y-4830000D02*
X4550000Y-4870000D01*
X4570000Y-3060000D02*
X4610000Y-3100000D01*
X4610000Y-3060000D02*
X4570000Y-3100000D01*
X4730000Y-3660000D02*
X4770000Y-3700000D01*
X4770000Y-3660000D02*
X4730000Y-3700000D01*
X4780000Y-2780000D02*
X4820000Y-2820000D01*
X4820000Y-2780000D02*
X4780000Y-2820000D01*
X4780000Y-3180000D02*
X4820000Y-3220000D01*
X4820000Y-3180000D02*
X4780000Y-3220000D01*
X4780000Y-4830000D02*
X4820000Y-4870000D01*
X4820000Y-4830000D02*
X4780000Y-4870000D01*
X4780000Y-5480000D02*
X4820000Y-5520000D01*
X4820000Y-5480000D02*
X4780000Y-5520000D01*
X4780000Y-5780000D02*
X4820000Y-5820000D01*
X4820000Y-5780000D02*
X4780000Y-5820000D01*
X4782000Y-4620000D02*
X4822000Y-4660000D01*
X4822000Y-4620000D02*
X4782000Y-4660000D01*
X4810000Y-5180000D02*
X4850000Y-5220000D01*
X4850000Y-5180000D02*
X4810000Y-5220000D01*
X4910000Y-3540000D02*
X4950000Y-3580000D01*
X4950000Y-3540000D02*
X4910000Y-3580000D01*
X5036000Y-4816000D02*
X5076000Y-4856000D01*
X5076000Y-4816000D02*
X5036000Y-4856000D01*
X5051800Y-5591800D02*
X5091800Y-5631800D01*
X5091800Y-5591800D02*
X5051800Y-5631800D01*
X5080000Y-6380000D02*
X5120000Y-6420000D01*
X5120000Y-6380000D02*
X5080000Y-6420000D01*
X5110000Y-2970000D02*
X5150000Y-3010000D01*
X5150000Y-2970000D02*
X5110000Y-3010000D01*
X5140000Y-5180000D02*
X5180000Y-5220000D01*
X5180000Y-5180000D02*
X5140000Y-5220000D01*
X5255000Y-5480000D02*
X5295000Y-5520000D01*
X5295000Y-5480000D02*
X5255000Y-5520000D01*
X5280000Y-2580000D02*
X5320000Y-2620000D01*
X5320000Y-2580000D02*
X5280000Y-2620000D01*
X5280000Y-3080000D02*
X5320000Y-3120000D01*
X5320000Y-3080000D02*
X5280000Y-3120000D01*
X5290000Y-4040000D02*
X5330000Y-4080000D01*
X5330000Y-4040000D02*
X5290000Y-4080000D01*
X5305000Y-4180000D02*
X5345000Y-4220000D01*
X5345000Y-4180000D02*
X5305000Y-4220000D01*
X5355000Y-4605000D02*
X5395000Y-4645000D01*
X5395000Y-4605000D02*
X5355000Y-4645000D01*
X5355000Y-4855000D02*
X5395000Y-4895000D01*
X5395000Y-4855000D02*
X5355000Y-4895000D01*
X5380000Y-5230000D02*
X5420000Y-5270000D01*
X5420000Y-5230000D02*
X5380000Y-5270000D01*
X5380000Y-5830000D02*
X5420000Y-5870000D01*
X5420000Y-5830000D02*
X5380000Y-5870000D01*
X5380000Y-6580000D02*
X5420000Y-6620000D01*
X5420000Y-6580000D02*
X5380000Y-6620000D01*
X5560000Y-4067800D02*
X5600000Y-4107800D01*
X5600000Y-4067800D02*
X5560000Y-4107800D01*
X5560000Y-5591800D02*
X5600000Y-5631800D01*
X5600000Y-5591800D02*
X5560000Y-5631800D01*
X5580000Y-3280000D02*
X5620000Y-3320000D01*
X5620000Y-3280000D02*
X5580000Y-3320000D01*
X5580000Y-3680000D02*
X5620000Y-3720000D01*
X5620000Y-3680000D02*
X5580000Y-3720000D01*
X5580000Y-3880000D02*
X5620000Y-3920000D01*
X5620000Y-3880000D02*
X5580000Y-3920000D01*
X5680000Y-6380000D02*
X5720000Y-6420000D01*
X5720000Y-6380000D02*
X5680000Y-6420000D01*
X5680000Y-6880000D02*
X5720000Y-6920000D01*
X5720000Y-6880000D02*
X5680000Y-6920000D01*
X5880000Y-6680000D02*
X5920000Y-6720000D01*
X5920000Y-6680000D02*
X5880000Y-6720000D01*
X5900000Y-6080000D02*
X5940000Y-6120000D01*
X5940000Y-6080000D02*
X5900000Y-6120000D01*
X4830000Y-6430000D02*
G75*
G02*
X4770000Y-6430000I-30000J0D01*
G01*
X4770000Y-6430000D02*
G75*
G02*
X4830000Y-6430000I30000J0D01*
G01*
X4300000Y-6832000D02*
X4300000Y-6932000D01*
X4250000Y-6882000D02*
X4350000Y-6882000D01*
X4550000Y-6832000D02*
X4550000Y-6932000D01*
X4500000Y-6882000D02*
X4600000Y-6882000D01*
X4800000Y-6832000D02*
X4800000Y-6932000D01*
X4750000Y-6882000D02*
X4850000Y-6882000D01*
X5050000Y-6832000D02*
X5050000Y-6932000D01*
X5000000Y-6882000D02*
X5100000Y-6882000D01*
X5300000Y-6832000D02*
X5300000Y-6932000D01*
X5250000Y-6882000D02*
X5350000Y-6882000D01*
D11*
X3745777Y-7366484D02*
X3745777Y-7166484D01*
X3745777Y-7166484D02*
X3793396Y-7166484D01*
X3793396Y-7166484D02*
X3821967Y-7176008D01*
X3821967Y-7176008D02*
X3841015Y-7195055D01*
X3841015Y-7195055D02*
X3850539Y-7214103D01*
X3850539Y-7214103D02*
X3860062Y-7252198D01*
X3860062Y-7252198D02*
X3860062Y-7280769D01*
X3860062Y-7280769D02*
X3850539Y-7318865D01*
X3850539Y-7318865D02*
X3841015Y-7337912D01*
X3841015Y-7337912D02*
X3821967Y-7356960D01*
X3821967Y-7356960D02*
X3793396Y-7366484D01*
X3793396Y-7366484D02*
X3745777Y-7366484D01*
X3945777Y-7366484D02*
X3945777Y-7233150D01*
X3945777Y-7271246D02*
X3955301Y-7252198D01*
X3955301Y-7252198D02*
X3964824Y-7242674D01*
X3964824Y-7242674D02*
X3983872Y-7233150D01*
X3983872Y-7233150D02*
X4002920Y-7233150D01*
X4069586Y-7366484D02*
X4069586Y-7233150D01*
X4069586Y-7166484D02*
X4060062Y-7176008D01*
X4060062Y-7176008D02*
X4069586Y-7185531D01*
X4069586Y-7185531D02*
X4079110Y-7176008D01*
X4079110Y-7176008D02*
X4069586Y-7166484D01*
X4069586Y-7166484D02*
X4069586Y-7185531D01*
X4193396Y-7366484D02*
X4174348Y-7356960D01*
X4174348Y-7356960D02*
X4164824Y-7337912D01*
X4164824Y-7337912D02*
X4164824Y-7166484D01*
X4298158Y-7366484D02*
X4279110Y-7356960D01*
X4279110Y-7356960D02*
X4269586Y-7337912D01*
X4269586Y-7337912D02*
X4269586Y-7166484D01*
X4526729Y-7366484D02*
X4526729Y-7166484D01*
X4526729Y-7166484D02*
X4593396Y-7309341D01*
X4593396Y-7309341D02*
X4660063Y-7166484D01*
X4660063Y-7166484D02*
X4660063Y-7366484D01*
X4841015Y-7366484D02*
X4841015Y-7261722D01*
X4841015Y-7261722D02*
X4831491Y-7242674D01*
X4831491Y-7242674D02*
X4812444Y-7233150D01*
X4812444Y-7233150D02*
X4774348Y-7233150D01*
X4774348Y-7233150D02*
X4755301Y-7242674D01*
X4841015Y-7356960D02*
X4821967Y-7366484D01*
X4821967Y-7366484D02*
X4774348Y-7366484D01*
X4774348Y-7366484D02*
X4755301Y-7356960D01*
X4755301Y-7356960D02*
X4745777Y-7337912D01*
X4745777Y-7337912D02*
X4745777Y-7318865D01*
X4745777Y-7318865D02*
X4755301Y-7299817D01*
X4755301Y-7299817D02*
X4774348Y-7290293D01*
X4774348Y-7290293D02*
X4821967Y-7290293D01*
X4821967Y-7290293D02*
X4841015Y-7280769D01*
X4936253Y-7233150D02*
X4936253Y-7433150D01*
X4936253Y-7242674D02*
X4955301Y-7233150D01*
X4955301Y-7233150D02*
X4993396Y-7233150D01*
X4993396Y-7233150D02*
X5012444Y-7242674D01*
X5012444Y-7242674D02*
X5021967Y-7252198D01*
X5021967Y-7252198D02*
X5031491Y-7271246D01*
X5031491Y-7271246D02*
X5031491Y-7328388D01*
X5031491Y-7328388D02*
X5021967Y-7347436D01*
X5021967Y-7347436D02*
X5012444Y-7356960D01*
X5012444Y-7356960D02*
X4993396Y-7366484D01*
X4993396Y-7366484D02*
X4955301Y-7366484D01*
X4955301Y-7366484D02*
X4936253Y-7356960D01*
X5117205Y-7347436D02*
X5126729Y-7356960D01*
X5126729Y-7356960D02*
X5117205Y-7366484D01*
X5117205Y-7366484D02*
X5107682Y-7356960D01*
X5107682Y-7356960D02*
X5117205Y-7347436D01*
X5117205Y-7347436D02*
X5117205Y-7366484D01*
X5117205Y-7242674D02*
X5126729Y-7252198D01*
X5126729Y-7252198D02*
X5117205Y-7261722D01*
X5117205Y-7261722D02*
X5107682Y-7252198D01*
X5107682Y-7252198D02*
X5117205Y-7242674D01*
X5117205Y-7242674D02*
X5117205Y-7261722D01*
D10*
X3445000Y-7675000D02*
X3485000Y-7715000D01*
X3485000Y-7675000D02*
X3445000Y-7715000D01*
D11*
X3783872Y-7586484D02*
X3802920Y-7586484D01*
X3802920Y-7586484D02*
X3821967Y-7596008D01*
X3821967Y-7596008D02*
X3831491Y-7605531D01*
X3831491Y-7605531D02*
X3841015Y-7624579D01*
X3841015Y-7624579D02*
X3850539Y-7662674D01*
X3850539Y-7662674D02*
X3850539Y-7710293D01*
X3850539Y-7710293D02*
X3841015Y-7748388D01*
X3841015Y-7748388D02*
X3831491Y-7767436D01*
X3831491Y-7767436D02*
X3821967Y-7776960D01*
X3821967Y-7776960D02*
X3802920Y-7786484D01*
X3802920Y-7786484D02*
X3783872Y-7786484D01*
X3783872Y-7786484D02*
X3764824Y-7776960D01*
X3764824Y-7776960D02*
X3755301Y-7767436D01*
X3755301Y-7767436D02*
X3745777Y-7748388D01*
X3745777Y-7748388D02*
X3736253Y-7710293D01*
X3736253Y-7710293D02*
X3736253Y-7662674D01*
X3736253Y-7662674D02*
X3745777Y-7624579D01*
X3745777Y-7624579D02*
X3755301Y-7605531D01*
X3755301Y-7605531D02*
X3764824Y-7596008D01*
X3764824Y-7596008D02*
X3783872Y-7586484D01*
X3936253Y-7767436D02*
X3945777Y-7776960D01*
X3945777Y-7776960D02*
X3936253Y-7786484D01*
X3936253Y-7786484D02*
X3926729Y-7776960D01*
X3926729Y-7776960D02*
X3936253Y-7767436D01*
X3936253Y-7767436D02*
X3936253Y-7786484D01*
X4117205Y-7653150D02*
X4117205Y-7786484D01*
X4069586Y-7576960D02*
X4021967Y-7719817D01*
X4021967Y-7719817D02*
X4145777Y-7719817D01*
X4260063Y-7586484D02*
X4279110Y-7586484D01*
X4279110Y-7586484D02*
X4298158Y-7596008D01*
X4298158Y-7596008D02*
X4307682Y-7605531D01*
X4307682Y-7605531D02*
X4317205Y-7624579D01*
X4317205Y-7624579D02*
X4326729Y-7662674D01*
X4326729Y-7662674D02*
X4326729Y-7710293D01*
X4326729Y-7710293D02*
X4317205Y-7748388D01*
X4317205Y-7748388D02*
X4307682Y-7767436D01*
X4307682Y-7767436D02*
X4298158Y-7776960D01*
X4298158Y-7776960D02*
X4279110Y-7786484D01*
X4279110Y-7786484D02*
X4260063Y-7786484D01*
X4260063Y-7786484D02*
X4241015Y-7776960D01*
X4241015Y-7776960D02*
X4231491Y-7767436D01*
X4231491Y-7767436D02*
X4221967Y-7748388D01*
X4221967Y-7748388D02*
X4212444Y-7710293D01*
X4212444Y-7710293D02*
X4212444Y-7662674D01*
X4212444Y-7662674D02*
X4221967Y-7624579D01*
X4221967Y-7624579D02*
X4231491Y-7605531D01*
X4231491Y-7605531D02*
X4241015Y-7596008D01*
X4241015Y-7596008D02*
X4260063Y-7586484D01*
X4450539Y-7586484D02*
X4469586Y-7586484D01*
X4469586Y-7586484D02*
X4488634Y-7596008D01*
X4488634Y-7596008D02*
X4498158Y-7605531D01*
X4498158Y-7605531D02*
X4507682Y-7624579D01*
X4507682Y-7624579D02*
X4517205Y-7662674D01*
X4517205Y-7662674D02*
X4517205Y-7710293D01*
X4517205Y-7710293D02*
X4507682Y-7748388D01*
X4507682Y-7748388D02*
X4498158Y-7767436D01*
X4498158Y-7767436D02*
X4488634Y-7776960D01*
X4488634Y-7776960D02*
X4469586Y-7786484D01*
X4469586Y-7786484D02*
X4450539Y-7786484D01*
X4450539Y-7786484D02*
X4431491Y-7776960D01*
X4431491Y-7776960D02*
X4421967Y-7767436D01*
X4421967Y-7767436D02*
X4412444Y-7748388D01*
X4412444Y-7748388D02*
X4402920Y-7710293D01*
X4402920Y-7710293D02*
X4402920Y-7662674D01*
X4402920Y-7662674D02*
X4412444Y-7624579D01*
X4412444Y-7624579D02*
X4421967Y-7605531D01*
X4421967Y-7605531D02*
X4431491Y-7596008D01*
X4431491Y-7596008D02*
X4450539Y-7586484D01*
X4602920Y-7786484D02*
X4602920Y-7653150D01*
X4602920Y-7672198D02*
X4612444Y-7662674D01*
X4612444Y-7662674D02*
X4631491Y-7653150D01*
X4631491Y-7653150D02*
X4660063Y-7653150D01*
X4660063Y-7653150D02*
X4679110Y-7662674D01*
X4679110Y-7662674D02*
X4688634Y-7681722D01*
X4688634Y-7681722D02*
X4688634Y-7786484D01*
X4688634Y-7681722D02*
X4698158Y-7662674D01*
X4698158Y-7662674D02*
X4717205Y-7653150D01*
X4717205Y-7653150D02*
X4745777Y-7653150D01*
X4745777Y-7653150D02*
X4764825Y-7662674D01*
X4764825Y-7662674D02*
X4774348Y-7681722D01*
X4774348Y-7681722D02*
X4774348Y-7786484D01*
X4869586Y-7786484D02*
X4869586Y-7653150D01*
X4869586Y-7672198D02*
X4879110Y-7662674D01*
X4879110Y-7662674D02*
X4898158Y-7653150D01*
X4898158Y-7653150D02*
X4926729Y-7653150D01*
X4926729Y-7653150D02*
X4945777Y-7662674D01*
X4945777Y-7662674D02*
X4955301Y-7681722D01*
X4955301Y-7681722D02*
X4955301Y-7786484D01*
X4955301Y-7681722D02*
X4964825Y-7662674D01*
X4964825Y-7662674D02*
X4983872Y-7653150D01*
X4983872Y-7653150D02*
X5012444Y-7653150D01*
X5012444Y-7653150D02*
X5031491Y-7662674D01*
X5031491Y-7662674D02*
X5041015Y-7681722D01*
X5041015Y-7681722D02*
X5041015Y-7786484D01*
X5431491Y-7576960D02*
X5260063Y-7834103D01*
X5688634Y-7586484D02*
X5707682Y-7586484D01*
X5707682Y-7586484D02*
X5726729Y-7596008D01*
X5726729Y-7596008D02*
X5736253Y-7605531D01*
X5736253Y-7605531D02*
X5745777Y-7624579D01*
X5745777Y-7624579D02*
X5755301Y-7662674D01*
X5755301Y-7662674D02*
X5755301Y-7710293D01*
X5755301Y-7710293D02*
X5745777Y-7748388D01*
X5745777Y-7748388D02*
X5736253Y-7767436D01*
X5736253Y-7767436D02*
X5726729Y-7776960D01*
X5726729Y-7776960D02*
X5707682Y-7786484D01*
X5707682Y-7786484D02*
X5688634Y-7786484D01*
X5688634Y-7786484D02*
X5669586Y-7776960D01*
X5669586Y-7776960D02*
X5660063Y-7767436D01*
X5660063Y-7767436D02*
X5650539Y-7748388D01*
X5650539Y-7748388D02*
X5641015Y-7710293D01*
X5641015Y-7710293D02*
X5641015Y-7662674D01*
X5641015Y-7662674D02*
X5650539Y-7624579D01*
X5650539Y-7624579D02*
X5660063Y-7605531D01*
X5660063Y-7605531D02*
X5669586Y-7596008D01*
X5669586Y-7596008D02*
X5688634Y-7586484D01*
X5841015Y-7767436D02*
X5850539Y-7776960D01*
X5850539Y-7776960D02*
X5841015Y-7786484D01*
X5841015Y-7786484D02*
X5831491Y-7776960D01*
X5831491Y-7776960D02*
X5841015Y-7767436D01*
X5841015Y-7767436D02*
X5841015Y-7786484D01*
X5974348Y-7586484D02*
X5993396Y-7586484D01*
X5993396Y-7586484D02*
X6012444Y-7596008D01*
X6012444Y-7596008D02*
X6021967Y-7605531D01*
X6021967Y-7605531D02*
X6031491Y-7624579D01*
X6031491Y-7624579D02*
X6041015Y-7662674D01*
X6041015Y-7662674D02*
X6041015Y-7710293D01*
X6041015Y-7710293D02*
X6031491Y-7748388D01*
X6031491Y-7748388D02*
X6021967Y-7767436D01*
X6021967Y-7767436D02*
X6012444Y-7776960D01*
X6012444Y-7776960D02*
X5993396Y-7786484D01*
X5993396Y-7786484D02*
X5974348Y-7786484D01*
X5974348Y-7786484D02*
X5955301Y-7776960D01*
X5955301Y-7776960D02*
X5945777Y-7767436D01*
X5945777Y-7767436D02*
X5936253Y-7748388D01*
X5936253Y-7748388D02*
X5926729Y-7710293D01*
X5926729Y-7710293D02*
X5926729Y-7662674D01*
X5926729Y-7662674D02*
X5936253Y-7624579D01*
X5936253Y-7624579D02*
X5945777Y-7605531D01*
X5945777Y-7605531D02*
X5955301Y-7596008D01*
X5955301Y-7596008D02*
X5974348Y-7586484D01*
X6231491Y-7786484D02*
X6117206Y-7786484D01*
X6174348Y-7786484D02*
X6174348Y-7586484D01*
X6174348Y-7586484D02*
X6155301Y-7615055D01*
X6155301Y-7615055D02*
X6136253Y-7634103D01*
X6136253Y-7634103D02*
X6117206Y-7643627D01*
X6412444Y-7586484D02*
X6317206Y-7586484D01*
X6317206Y-7586484D02*
X6307682Y-7681722D01*
X6307682Y-7681722D02*
X6317206Y-7672198D01*
X6317206Y-7672198D02*
X6336253Y-7662674D01*
X6336253Y-7662674D02*
X6383872Y-7662674D01*
X6383872Y-7662674D02*
X6402920Y-7672198D01*
X6402920Y-7672198D02*
X6412444Y-7681722D01*
X6412444Y-7681722D02*
X6421967Y-7700769D01*
X6421967Y-7700769D02*
X6421967Y-7748388D01*
X6421967Y-7748388D02*
X6412444Y-7767436D01*
X6412444Y-7767436D02*
X6402920Y-7776960D01*
X6402920Y-7776960D02*
X6383872Y-7786484D01*
X6383872Y-7786484D02*
X6336253Y-7786484D01*
X6336253Y-7786484D02*
X6317206Y-7776960D01*
X6317206Y-7776960D02*
X6307682Y-7767436D01*
X6488634Y-7586484D02*
X6621967Y-7586484D01*
X6621967Y-7586484D02*
X6536253Y-7786484D01*
X6688634Y-7586484D02*
X6688634Y-7624579D01*
X6764825Y-7586484D02*
X6764825Y-7624579D01*
X7060063Y-7862674D02*
X7050539Y-7853150D01*
X7050539Y-7853150D02*
X7031491Y-7824579D01*
X7031491Y-7824579D02*
X7021968Y-7805531D01*
X7021968Y-7805531D02*
X7012444Y-7776960D01*
X7012444Y-7776960D02*
X7002920Y-7729341D01*
X7002920Y-7729341D02*
X7002920Y-7691246D01*
X7002920Y-7691246D02*
X7012444Y-7643627D01*
X7012444Y-7643627D02*
X7021968Y-7615055D01*
X7021968Y-7615055D02*
X7031491Y-7596008D01*
X7031491Y-7596008D02*
X7050539Y-7567436D01*
X7050539Y-7567436D02*
X7060063Y-7557912D01*
X7221968Y-7586484D02*
X7183872Y-7586484D01*
X7183872Y-7586484D02*
X7164825Y-7596008D01*
X7164825Y-7596008D02*
X7155301Y-7605531D01*
X7155301Y-7605531D02*
X7136253Y-7634103D01*
X7136253Y-7634103D02*
X7126729Y-7672198D01*
X7126729Y-7672198D02*
X7126729Y-7748388D01*
X7126729Y-7748388D02*
X7136253Y-7767436D01*
X7136253Y-7767436D02*
X7145777Y-7776960D01*
X7145777Y-7776960D02*
X7164825Y-7786484D01*
X7164825Y-7786484D02*
X7202920Y-7786484D01*
X7202920Y-7786484D02*
X7221968Y-7776960D01*
X7221968Y-7776960D02*
X7231491Y-7767436D01*
X7231491Y-7767436D02*
X7241015Y-7748388D01*
X7241015Y-7748388D02*
X7241015Y-7700769D01*
X7241015Y-7700769D02*
X7231491Y-7681722D01*
X7231491Y-7681722D02*
X7221968Y-7672198D01*
X7221968Y-7672198D02*
X7202920Y-7662674D01*
X7202920Y-7662674D02*
X7164825Y-7662674D01*
X7164825Y-7662674D02*
X7145777Y-7672198D01*
X7145777Y-7672198D02*
X7136253Y-7681722D01*
X7136253Y-7681722D02*
X7126729Y-7700769D01*
X7355301Y-7672198D02*
X7336253Y-7662674D01*
X7336253Y-7662674D02*
X7326729Y-7653150D01*
X7326729Y-7653150D02*
X7317206Y-7634103D01*
X7317206Y-7634103D02*
X7317206Y-7624579D01*
X7317206Y-7624579D02*
X7326729Y-7605531D01*
X7326729Y-7605531D02*
X7336253Y-7596008D01*
X7336253Y-7596008D02*
X7355301Y-7586484D01*
X7355301Y-7586484D02*
X7393396Y-7586484D01*
X7393396Y-7586484D02*
X7412444Y-7596008D01*
X7412444Y-7596008D02*
X7421968Y-7605531D01*
X7421968Y-7605531D02*
X7431491Y-7624579D01*
X7431491Y-7624579D02*
X7431491Y-7634103D01*
X7431491Y-7634103D02*
X7421968Y-7653150D01*
X7421968Y-7653150D02*
X7412444Y-7662674D01*
X7412444Y-7662674D02*
X7393396Y-7672198D01*
X7393396Y-7672198D02*
X7355301Y-7672198D01*
X7355301Y-7672198D02*
X7336253Y-7681722D01*
X7336253Y-7681722D02*
X7326729Y-7691246D01*
X7326729Y-7691246D02*
X7317206Y-7710293D01*
X7317206Y-7710293D02*
X7317206Y-7748388D01*
X7317206Y-7748388D02*
X7326729Y-7767436D01*
X7326729Y-7767436D02*
X7336253Y-7776960D01*
X7336253Y-7776960D02*
X7355301Y-7786484D01*
X7355301Y-7786484D02*
X7393396Y-7786484D01*
X7393396Y-7786484D02*
X7412444Y-7776960D01*
X7412444Y-7776960D02*
X7421968Y-7767436D01*
X7421968Y-7767436D02*
X7431491Y-7748388D01*
X7431491Y-7748388D02*
X7431491Y-7710293D01*
X7431491Y-7710293D02*
X7421968Y-7691246D01*
X7421968Y-7691246D02*
X7412444Y-7681722D01*
X7412444Y-7681722D02*
X7393396Y-7672198D01*
X7669587Y-7786484D02*
X7669587Y-7586484D01*
X7755301Y-7786484D02*
X7755301Y-7681722D01*
X7755301Y-7681722D02*
X7745777Y-7662674D01*
X7745777Y-7662674D02*
X7726730Y-7653150D01*
X7726730Y-7653150D02*
X7698158Y-7653150D01*
X7698158Y-7653150D02*
X7679110Y-7662674D01*
X7679110Y-7662674D02*
X7669587Y-7672198D01*
X7879110Y-7786484D02*
X7860063Y-7776960D01*
X7860063Y-7776960D02*
X7850539Y-7767436D01*
X7850539Y-7767436D02*
X7841015Y-7748388D01*
X7841015Y-7748388D02*
X7841015Y-7691246D01*
X7841015Y-7691246D02*
X7850539Y-7672198D01*
X7850539Y-7672198D02*
X7860063Y-7662674D01*
X7860063Y-7662674D02*
X7879110Y-7653150D01*
X7879110Y-7653150D02*
X7907682Y-7653150D01*
X7907682Y-7653150D02*
X7926730Y-7662674D01*
X7926730Y-7662674D02*
X7936253Y-7672198D01*
X7936253Y-7672198D02*
X7945777Y-7691246D01*
X7945777Y-7691246D02*
X7945777Y-7748388D01*
X7945777Y-7748388D02*
X7936253Y-7767436D01*
X7936253Y-7767436D02*
X7926730Y-7776960D01*
X7926730Y-7776960D02*
X7907682Y-7786484D01*
X7907682Y-7786484D02*
X7879110Y-7786484D01*
X8060063Y-7786484D02*
X8041015Y-7776960D01*
X8041015Y-7776960D02*
X8031491Y-7757912D01*
X8031491Y-7757912D02*
X8031491Y-7586484D01*
X8212444Y-7776960D02*
X8193396Y-7786484D01*
X8193396Y-7786484D02*
X8155301Y-7786484D01*
X8155301Y-7786484D02*
X8136253Y-7776960D01*
X8136253Y-7776960D02*
X8126730Y-7757912D01*
X8126730Y-7757912D02*
X8126730Y-7681722D01*
X8126730Y-7681722D02*
X8136253Y-7662674D01*
X8136253Y-7662674D02*
X8155301Y-7653150D01*
X8155301Y-7653150D02*
X8193396Y-7653150D01*
X8193396Y-7653150D02*
X8212444Y-7662674D01*
X8212444Y-7662674D02*
X8221968Y-7681722D01*
X8221968Y-7681722D02*
X8221968Y-7700769D01*
X8221968Y-7700769D02*
X8126730Y-7719817D01*
X8298158Y-7776960D02*
X8317206Y-7786484D01*
X8317206Y-7786484D02*
X8355301Y-7786484D01*
X8355301Y-7786484D02*
X8374349Y-7776960D01*
X8374349Y-7776960D02*
X8383872Y-7757912D01*
X8383872Y-7757912D02*
X8383872Y-7748388D01*
X8383872Y-7748388D02*
X8374349Y-7729341D01*
X8374349Y-7729341D02*
X8355301Y-7719817D01*
X8355301Y-7719817D02*
X8326730Y-7719817D01*
X8326730Y-7719817D02*
X8307682Y-7710293D01*
X8307682Y-7710293D02*
X8298158Y-7691246D01*
X8298158Y-7691246D02*
X8298158Y-7681722D01*
X8298158Y-7681722D02*
X8307682Y-7662674D01*
X8307682Y-7662674D02*
X8326730Y-7653150D01*
X8326730Y-7653150D02*
X8355301Y-7653150D01*
X8355301Y-7653150D02*
X8374349Y-7662674D01*
X8450539Y-7862674D02*
X8460063Y-7853150D01*
X8460063Y-7853150D02*
X8479111Y-7824579D01*
X8479111Y-7824579D02*
X8488634Y-7805531D01*
X8488634Y-7805531D02*
X8498158Y-7776960D01*
X8498158Y-7776960D02*
X8507682Y-7729341D01*
X8507682Y-7729341D02*
X8507682Y-7691246D01*
X8507682Y-7691246D02*
X8498158Y-7643627D01*
X8498158Y-7643627D02*
X8488634Y-7615055D01*
X8488634Y-7615055D02*
X8479111Y-7596008D01*
X8479111Y-7596008D02*
X8460063Y-7567436D01*
X8460063Y-7567436D02*
X8450539Y-7557912D01*
D10*
X3485000Y-7959000D02*
G75*
G02*
X3425000Y-7959000I-30000J0D01*
G01*
X3425000Y-7959000D02*
G75*
G02*
X3485000Y-7959000I30000J0D01*
G01*
D11*
X3783872Y-7850484D02*
X3802920Y-7850484D01*
X3802920Y-7850484D02*
X3821967Y-7860008D01*
X3821967Y-7860008D02*
X3831491Y-7869531D01*
X3831491Y-7869531D02*
X3841015Y-7888579D01*
X3841015Y-7888579D02*
X3850539Y-7926674D01*
X3850539Y-7926674D02*
X3850539Y-7974293D01*
X3850539Y-7974293D02*
X3841015Y-8012388D01*
X3841015Y-8012388D02*
X3831491Y-8031436D01*
X3831491Y-8031436D02*
X3821967Y-8040960D01*
X3821967Y-8040960D02*
X3802920Y-8050484D01*
X3802920Y-8050484D02*
X3783872Y-8050484D01*
X3783872Y-8050484D02*
X3764824Y-8040960D01*
X3764824Y-8040960D02*
X3755301Y-8031436D01*
X3755301Y-8031436D02*
X3745777Y-8012388D01*
X3745777Y-8012388D02*
X3736253Y-7974293D01*
X3736253Y-7974293D02*
X3736253Y-7926674D01*
X3736253Y-7926674D02*
X3745777Y-7888579D01*
X3745777Y-7888579D02*
X3755301Y-7869531D01*
X3755301Y-7869531D02*
X3764824Y-7860008D01*
X3764824Y-7860008D02*
X3783872Y-7850484D01*
X3936253Y-8031436D02*
X3945777Y-8040960D01*
X3945777Y-8040960D02*
X3936253Y-8050484D01*
X3936253Y-8050484D02*
X3926729Y-8040960D01*
X3926729Y-8040960D02*
X3936253Y-8031436D01*
X3936253Y-8031436D02*
X3936253Y-8050484D01*
X4117205Y-7850484D02*
X4079110Y-7850484D01*
X4079110Y-7850484D02*
X4060062Y-7860008D01*
X4060062Y-7860008D02*
X4050539Y-7869531D01*
X4050539Y-7869531D02*
X4031491Y-7898103D01*
X4031491Y-7898103D02*
X4021967Y-7936198D01*
X4021967Y-7936198D02*
X4021967Y-8012388D01*
X4021967Y-8012388D02*
X4031491Y-8031436D01*
X4031491Y-8031436D02*
X4041015Y-8040960D01*
X4041015Y-8040960D02*
X4060062Y-8050484D01*
X4060062Y-8050484D02*
X4098158Y-8050484D01*
X4098158Y-8050484D02*
X4117205Y-8040960D01*
X4117205Y-8040960D02*
X4126729Y-8031436D01*
X4126729Y-8031436D02*
X4136253Y-8012388D01*
X4136253Y-8012388D02*
X4136253Y-7964769D01*
X4136253Y-7964769D02*
X4126729Y-7945722D01*
X4126729Y-7945722D02*
X4117205Y-7936198D01*
X4117205Y-7936198D02*
X4098158Y-7926674D01*
X4098158Y-7926674D02*
X4060062Y-7926674D01*
X4060062Y-7926674D02*
X4041015Y-7936198D01*
X4041015Y-7936198D02*
X4031491Y-7945722D01*
X4031491Y-7945722D02*
X4021967Y-7964769D01*
X4260063Y-7850484D02*
X4279110Y-7850484D01*
X4279110Y-7850484D02*
X4298158Y-7860008D01*
X4298158Y-7860008D02*
X4307682Y-7869531D01*
X4307682Y-7869531D02*
X4317205Y-7888579D01*
X4317205Y-7888579D02*
X4326729Y-7926674D01*
X4326729Y-7926674D02*
X4326729Y-7974293D01*
X4326729Y-7974293D02*
X4317205Y-8012388D01*
X4317205Y-8012388D02*
X4307682Y-8031436D01*
X4307682Y-8031436D02*
X4298158Y-8040960D01*
X4298158Y-8040960D02*
X4279110Y-8050484D01*
X4279110Y-8050484D02*
X4260063Y-8050484D01*
X4260063Y-8050484D02*
X4241015Y-8040960D01*
X4241015Y-8040960D02*
X4231491Y-8031436D01*
X4231491Y-8031436D02*
X4221967Y-8012388D01*
X4221967Y-8012388D02*
X4212444Y-7974293D01*
X4212444Y-7974293D02*
X4212444Y-7926674D01*
X4212444Y-7926674D02*
X4221967Y-7888579D01*
X4221967Y-7888579D02*
X4231491Y-7869531D01*
X4231491Y-7869531D02*
X4241015Y-7860008D01*
X4241015Y-7860008D02*
X4260063Y-7850484D01*
X4450539Y-7850484D02*
X4469586Y-7850484D01*
X4469586Y-7850484D02*
X4488634Y-7860008D01*
X4488634Y-7860008D02*
X4498158Y-7869531D01*
X4498158Y-7869531D02*
X4507682Y-7888579D01*
X4507682Y-7888579D02*
X4517205Y-7926674D01*
X4517205Y-7926674D02*
X4517205Y-7974293D01*
X4517205Y-7974293D02*
X4507682Y-8012388D01*
X4507682Y-8012388D02*
X4498158Y-8031436D01*
X4498158Y-8031436D02*
X4488634Y-8040960D01*
X4488634Y-8040960D02*
X4469586Y-8050484D01*
X4469586Y-8050484D02*
X4450539Y-8050484D01*
X4450539Y-8050484D02*
X4431491Y-8040960D01*
X4431491Y-8040960D02*
X4421967Y-8031436D01*
X4421967Y-8031436D02*
X4412444Y-8012388D01*
X4412444Y-8012388D02*
X4402920Y-7974293D01*
X4402920Y-7974293D02*
X4402920Y-7926674D01*
X4402920Y-7926674D02*
X4412444Y-7888579D01*
X4412444Y-7888579D02*
X4421967Y-7869531D01*
X4421967Y-7869531D02*
X4431491Y-7860008D01*
X4431491Y-7860008D02*
X4450539Y-7850484D01*
X4602920Y-8050484D02*
X4602920Y-7917150D01*
X4602920Y-7936198D02*
X4612444Y-7926674D01*
X4612444Y-7926674D02*
X4631491Y-7917150D01*
X4631491Y-7917150D02*
X4660063Y-7917150D01*
X4660063Y-7917150D02*
X4679110Y-7926674D01*
X4679110Y-7926674D02*
X4688634Y-7945722D01*
X4688634Y-7945722D02*
X4688634Y-8050484D01*
X4688634Y-7945722D02*
X4698158Y-7926674D01*
X4698158Y-7926674D02*
X4717205Y-7917150D01*
X4717205Y-7917150D02*
X4745777Y-7917150D01*
X4745777Y-7917150D02*
X4764825Y-7926674D01*
X4764825Y-7926674D02*
X4774348Y-7945722D01*
X4774348Y-7945722D02*
X4774348Y-8050484D01*
X4869586Y-8050484D02*
X4869586Y-7917150D01*
X4869586Y-7936198D02*
X4879110Y-7926674D01*
X4879110Y-7926674D02*
X4898158Y-7917150D01*
X4898158Y-7917150D02*
X4926729Y-7917150D01*
X4926729Y-7917150D02*
X4945777Y-7926674D01*
X4945777Y-7926674D02*
X4955301Y-7945722D01*
X4955301Y-7945722D02*
X4955301Y-8050484D01*
X4955301Y-7945722D02*
X4964825Y-7926674D01*
X4964825Y-7926674D02*
X4983872Y-7917150D01*
X4983872Y-7917150D02*
X5012444Y-7917150D01*
X5012444Y-7917150D02*
X5031491Y-7926674D01*
X5031491Y-7926674D02*
X5041015Y-7945722D01*
X5041015Y-7945722D02*
X5041015Y-8050484D01*
X5431491Y-7840960D02*
X5260063Y-8098103D01*
X5688634Y-7850484D02*
X5707682Y-7850484D01*
X5707682Y-7850484D02*
X5726729Y-7860008D01*
X5726729Y-7860008D02*
X5736253Y-7869531D01*
X5736253Y-7869531D02*
X5745777Y-7888579D01*
X5745777Y-7888579D02*
X5755301Y-7926674D01*
X5755301Y-7926674D02*
X5755301Y-7974293D01*
X5755301Y-7974293D02*
X5745777Y-8012388D01*
X5745777Y-8012388D02*
X5736253Y-8031436D01*
X5736253Y-8031436D02*
X5726729Y-8040960D01*
X5726729Y-8040960D02*
X5707682Y-8050484D01*
X5707682Y-8050484D02*
X5688634Y-8050484D01*
X5688634Y-8050484D02*
X5669586Y-8040960D01*
X5669586Y-8040960D02*
X5660063Y-8031436D01*
X5660063Y-8031436D02*
X5650539Y-8012388D01*
X5650539Y-8012388D02*
X5641015Y-7974293D01*
X5641015Y-7974293D02*
X5641015Y-7926674D01*
X5641015Y-7926674D02*
X5650539Y-7888579D01*
X5650539Y-7888579D02*
X5660063Y-7869531D01*
X5660063Y-7869531D02*
X5669586Y-7860008D01*
X5669586Y-7860008D02*
X5688634Y-7850484D01*
X5841015Y-8031436D02*
X5850539Y-8040960D01*
X5850539Y-8040960D02*
X5841015Y-8050484D01*
X5841015Y-8050484D02*
X5831491Y-8040960D01*
X5831491Y-8040960D02*
X5841015Y-8031436D01*
X5841015Y-8031436D02*
X5841015Y-8050484D01*
X5974348Y-7850484D02*
X5993396Y-7850484D01*
X5993396Y-7850484D02*
X6012444Y-7860008D01*
X6012444Y-7860008D02*
X6021967Y-7869531D01*
X6021967Y-7869531D02*
X6031491Y-7888579D01*
X6031491Y-7888579D02*
X6041015Y-7926674D01*
X6041015Y-7926674D02*
X6041015Y-7974293D01*
X6041015Y-7974293D02*
X6031491Y-8012388D01*
X6031491Y-8012388D02*
X6021967Y-8031436D01*
X6021967Y-8031436D02*
X6012444Y-8040960D01*
X6012444Y-8040960D02*
X5993396Y-8050484D01*
X5993396Y-8050484D02*
X5974348Y-8050484D01*
X5974348Y-8050484D02*
X5955301Y-8040960D01*
X5955301Y-8040960D02*
X5945777Y-8031436D01*
X5945777Y-8031436D02*
X5936253Y-8012388D01*
X5936253Y-8012388D02*
X5926729Y-7974293D01*
X5926729Y-7974293D02*
X5926729Y-7926674D01*
X5926729Y-7926674D02*
X5936253Y-7888579D01*
X5936253Y-7888579D02*
X5945777Y-7869531D01*
X5945777Y-7869531D02*
X5955301Y-7860008D01*
X5955301Y-7860008D02*
X5974348Y-7850484D01*
X6117206Y-7869531D02*
X6126729Y-7860008D01*
X6126729Y-7860008D02*
X6145777Y-7850484D01*
X6145777Y-7850484D02*
X6193396Y-7850484D01*
X6193396Y-7850484D02*
X6212444Y-7860008D01*
X6212444Y-7860008D02*
X6221967Y-7869531D01*
X6221967Y-7869531D02*
X6231491Y-7888579D01*
X6231491Y-7888579D02*
X6231491Y-7907627D01*
X6231491Y-7907627D02*
X6221967Y-7936198D01*
X6221967Y-7936198D02*
X6107682Y-8050484D01*
X6107682Y-8050484D02*
X6231491Y-8050484D01*
X6298158Y-7850484D02*
X6421967Y-7850484D01*
X6421967Y-7850484D02*
X6355301Y-7926674D01*
X6355301Y-7926674D02*
X6383872Y-7926674D01*
X6383872Y-7926674D02*
X6402920Y-7936198D01*
X6402920Y-7936198D02*
X6412444Y-7945722D01*
X6412444Y-7945722D02*
X6421967Y-7964769D01*
X6421967Y-7964769D02*
X6421967Y-8012388D01*
X6421967Y-8012388D02*
X6412444Y-8031436D01*
X6412444Y-8031436D02*
X6402920Y-8040960D01*
X6402920Y-8040960D02*
X6383872Y-8050484D01*
X6383872Y-8050484D02*
X6326729Y-8050484D01*
X6326729Y-8050484D02*
X6307682Y-8040960D01*
X6307682Y-8040960D02*
X6298158Y-8031436D01*
X6593396Y-7850484D02*
X6555301Y-7850484D01*
X6555301Y-7850484D02*
X6536253Y-7860008D01*
X6536253Y-7860008D02*
X6526729Y-7869531D01*
X6526729Y-7869531D02*
X6507682Y-7898103D01*
X6507682Y-7898103D02*
X6498158Y-7936198D01*
X6498158Y-7936198D02*
X6498158Y-8012388D01*
X6498158Y-8012388D02*
X6507682Y-8031436D01*
X6507682Y-8031436D02*
X6517206Y-8040960D01*
X6517206Y-8040960D02*
X6536253Y-8050484D01*
X6536253Y-8050484D02*
X6574348Y-8050484D01*
X6574348Y-8050484D02*
X6593396Y-8040960D01*
X6593396Y-8040960D02*
X6602920Y-8031436D01*
X6602920Y-8031436D02*
X6612444Y-8012388D01*
X6612444Y-8012388D02*
X6612444Y-7964769D01*
X6612444Y-7964769D02*
X6602920Y-7945722D01*
X6602920Y-7945722D02*
X6593396Y-7936198D01*
X6593396Y-7936198D02*
X6574348Y-7926674D01*
X6574348Y-7926674D02*
X6536253Y-7926674D01*
X6536253Y-7926674D02*
X6517206Y-7936198D01*
X6517206Y-7936198D02*
X6507682Y-7945722D01*
X6507682Y-7945722D02*
X6498158Y-7964769D01*
X6688634Y-7850484D02*
X6688634Y-7888579D01*
X6764825Y-7850484D02*
X6764825Y-7888579D01*
X7060063Y-8126674D02*
X7050539Y-8117150D01*
X7050539Y-8117150D02*
X7031491Y-8088579D01*
X7031491Y-8088579D02*
X7021968Y-8069531D01*
X7021968Y-8069531D02*
X7012444Y-8040960D01*
X7012444Y-8040960D02*
X7002920Y-7993341D01*
X7002920Y-7993341D02*
X7002920Y-7955246D01*
X7002920Y-7955246D02*
X7012444Y-7907627D01*
X7012444Y-7907627D02*
X7021968Y-7879055D01*
X7021968Y-7879055D02*
X7031491Y-7860008D01*
X7031491Y-7860008D02*
X7050539Y-7831436D01*
X7050539Y-7831436D02*
X7060063Y-7821912D01*
X7241015Y-8050484D02*
X7126729Y-8050484D01*
X7183872Y-8050484D02*
X7183872Y-7850484D01*
X7183872Y-7850484D02*
X7164825Y-7879055D01*
X7164825Y-7879055D02*
X7145777Y-7898103D01*
X7145777Y-7898103D02*
X7126729Y-7907627D01*
X7479110Y-8050484D02*
X7479110Y-7850484D01*
X7564825Y-8050484D02*
X7564825Y-7945722D01*
X7564825Y-7945722D02*
X7555301Y-7926674D01*
X7555301Y-7926674D02*
X7536253Y-7917150D01*
X7536253Y-7917150D02*
X7507682Y-7917150D01*
X7507682Y-7917150D02*
X7488634Y-7926674D01*
X7488634Y-7926674D02*
X7479110Y-7936198D01*
X7688634Y-8050484D02*
X7669587Y-8040960D01*
X7669587Y-8040960D02*
X7660063Y-8031436D01*
X7660063Y-8031436D02*
X7650539Y-8012388D01*
X7650539Y-8012388D02*
X7650539Y-7955246D01*
X7650539Y-7955246D02*
X7660063Y-7936198D01*
X7660063Y-7936198D02*
X7669587Y-7926674D01*
X7669587Y-7926674D02*
X7688634Y-7917150D01*
X7688634Y-7917150D02*
X7717206Y-7917150D01*
X7717206Y-7917150D02*
X7736253Y-7926674D01*
X7736253Y-7926674D02*
X7745777Y-7936198D01*
X7745777Y-7936198D02*
X7755301Y-7955246D01*
X7755301Y-7955246D02*
X7755301Y-8012388D01*
X7755301Y-8012388D02*
X7745777Y-8031436D01*
X7745777Y-8031436D02*
X7736253Y-8040960D01*
X7736253Y-8040960D02*
X7717206Y-8050484D01*
X7717206Y-8050484D02*
X7688634Y-8050484D01*
X7869587Y-8050484D02*
X7850539Y-8040960D01*
X7850539Y-8040960D02*
X7841015Y-8021912D01*
X7841015Y-8021912D02*
X7841015Y-7850484D01*
X8021968Y-8040960D02*
X8002920Y-8050484D01*
X8002920Y-8050484D02*
X7964825Y-8050484D01*
X7964825Y-8050484D02*
X7945777Y-8040960D01*
X7945777Y-8040960D02*
X7936253Y-8021912D01*
X7936253Y-8021912D02*
X7936253Y-7945722D01*
X7936253Y-7945722D02*
X7945777Y-7926674D01*
X7945777Y-7926674D02*
X7964825Y-7917150D01*
X7964825Y-7917150D02*
X8002920Y-7917150D01*
X8002920Y-7917150D02*
X8021968Y-7926674D01*
X8021968Y-7926674D02*
X8031491Y-7945722D01*
X8031491Y-7945722D02*
X8031491Y-7964769D01*
X8031491Y-7964769D02*
X7936253Y-7983817D01*
X8098158Y-8126674D02*
X8107682Y-8117150D01*
X8107682Y-8117150D02*
X8126730Y-8088579D01*
X8126730Y-8088579D02*
X8136253Y-8069531D01*
X8136253Y-8069531D02*
X8145777Y-8040960D01*
X8145777Y-8040960D02*
X8155301Y-7993341D01*
X8155301Y-7993341D02*
X8155301Y-7955246D01*
X8155301Y-7955246D02*
X8145777Y-7907627D01*
X8145777Y-7907627D02*
X8136253Y-7879055D01*
X8136253Y-7879055D02*
X8126730Y-7860008D01*
X8126730Y-7860008D02*
X8107682Y-7831436D01*
X8107682Y-7831436D02*
X8098158Y-7821912D01*
D10*
X3435000Y-8173000D02*
X3435000Y-8273000D01*
X3385000Y-8223000D02*
X3485000Y-8223000D01*
D11*
X3850539Y-8314484D02*
X3736253Y-8314484D01*
X3793396Y-8314484D02*
X3793396Y-8114484D01*
X3793396Y-8114484D02*
X3774348Y-8143055D01*
X3774348Y-8143055D02*
X3755301Y-8162103D01*
X3755301Y-8162103D02*
X3736253Y-8171627D01*
X3936253Y-8295436D02*
X3945777Y-8304960D01*
X3945777Y-8304960D02*
X3936253Y-8314484D01*
X3936253Y-8314484D02*
X3926729Y-8304960D01*
X3926729Y-8304960D02*
X3936253Y-8295436D01*
X3936253Y-8295436D02*
X3936253Y-8314484D01*
X4069586Y-8114484D02*
X4088634Y-8114484D01*
X4088634Y-8114484D02*
X4107682Y-8124008D01*
X4107682Y-8124008D02*
X4117205Y-8133531D01*
X4117205Y-8133531D02*
X4126729Y-8152579D01*
X4126729Y-8152579D02*
X4136253Y-8190674D01*
X4136253Y-8190674D02*
X4136253Y-8238293D01*
X4136253Y-8238293D02*
X4126729Y-8276388D01*
X4126729Y-8276388D02*
X4117205Y-8295436D01*
X4117205Y-8295436D02*
X4107682Y-8304960D01*
X4107682Y-8304960D02*
X4088634Y-8314484D01*
X4088634Y-8314484D02*
X4069586Y-8314484D01*
X4069586Y-8314484D02*
X4050539Y-8304960D01*
X4050539Y-8304960D02*
X4041015Y-8295436D01*
X4041015Y-8295436D02*
X4031491Y-8276388D01*
X4031491Y-8276388D02*
X4021967Y-8238293D01*
X4021967Y-8238293D02*
X4021967Y-8190674D01*
X4021967Y-8190674D02*
X4031491Y-8152579D01*
X4031491Y-8152579D02*
X4041015Y-8133531D01*
X4041015Y-8133531D02*
X4050539Y-8124008D01*
X4050539Y-8124008D02*
X4069586Y-8114484D01*
X4260063Y-8114484D02*
X4279110Y-8114484D01*
X4279110Y-8114484D02*
X4298158Y-8124008D01*
X4298158Y-8124008D02*
X4307682Y-8133531D01*
X4307682Y-8133531D02*
X4317205Y-8152579D01*
X4317205Y-8152579D02*
X4326729Y-8190674D01*
X4326729Y-8190674D02*
X4326729Y-8238293D01*
X4326729Y-8238293D02*
X4317205Y-8276388D01*
X4317205Y-8276388D02*
X4307682Y-8295436D01*
X4307682Y-8295436D02*
X4298158Y-8304960D01*
X4298158Y-8304960D02*
X4279110Y-8314484D01*
X4279110Y-8314484D02*
X4260063Y-8314484D01*
X4260063Y-8314484D02*
X4241015Y-8304960D01*
X4241015Y-8304960D02*
X4231491Y-8295436D01*
X4231491Y-8295436D02*
X4221967Y-8276388D01*
X4221967Y-8276388D02*
X4212444Y-8238293D01*
X4212444Y-8238293D02*
X4212444Y-8190674D01*
X4212444Y-8190674D02*
X4221967Y-8152579D01*
X4221967Y-8152579D02*
X4231491Y-8133531D01*
X4231491Y-8133531D02*
X4241015Y-8124008D01*
X4241015Y-8124008D02*
X4260063Y-8114484D01*
X4450539Y-8114484D02*
X4469586Y-8114484D01*
X4469586Y-8114484D02*
X4488634Y-8124008D01*
X4488634Y-8124008D02*
X4498158Y-8133531D01*
X4498158Y-8133531D02*
X4507682Y-8152579D01*
X4507682Y-8152579D02*
X4517205Y-8190674D01*
X4517205Y-8190674D02*
X4517205Y-8238293D01*
X4517205Y-8238293D02*
X4507682Y-8276388D01*
X4507682Y-8276388D02*
X4498158Y-8295436D01*
X4498158Y-8295436D02*
X4488634Y-8304960D01*
X4488634Y-8304960D02*
X4469586Y-8314484D01*
X4469586Y-8314484D02*
X4450539Y-8314484D01*
X4450539Y-8314484D02*
X4431491Y-8304960D01*
X4431491Y-8304960D02*
X4421967Y-8295436D01*
X4421967Y-8295436D02*
X4412444Y-8276388D01*
X4412444Y-8276388D02*
X4402920Y-8238293D01*
X4402920Y-8238293D02*
X4402920Y-8190674D01*
X4402920Y-8190674D02*
X4412444Y-8152579D01*
X4412444Y-8152579D02*
X4421967Y-8133531D01*
X4421967Y-8133531D02*
X4431491Y-8124008D01*
X4431491Y-8124008D02*
X4450539Y-8114484D01*
X4602920Y-8314484D02*
X4602920Y-8181150D01*
X4602920Y-8200198D02*
X4612444Y-8190674D01*
X4612444Y-8190674D02*
X4631491Y-8181150D01*
X4631491Y-8181150D02*
X4660063Y-8181150D01*
X4660063Y-8181150D02*
X4679110Y-8190674D01*
X4679110Y-8190674D02*
X4688634Y-8209722D01*
X4688634Y-8209722D02*
X4688634Y-8314484D01*
X4688634Y-8209722D02*
X4698158Y-8190674D01*
X4698158Y-8190674D02*
X4717205Y-8181150D01*
X4717205Y-8181150D02*
X4745777Y-8181150D01*
X4745777Y-8181150D02*
X4764825Y-8190674D01*
X4764825Y-8190674D02*
X4774348Y-8209722D01*
X4774348Y-8209722D02*
X4774348Y-8314484D01*
X4869586Y-8314484D02*
X4869586Y-8181150D01*
X4869586Y-8200198D02*
X4879110Y-8190674D01*
X4879110Y-8190674D02*
X4898158Y-8181150D01*
X4898158Y-8181150D02*
X4926729Y-8181150D01*
X4926729Y-8181150D02*
X4945777Y-8190674D01*
X4945777Y-8190674D02*
X4955301Y-8209722D01*
X4955301Y-8209722D02*
X4955301Y-8314484D01*
X4955301Y-8209722D02*
X4964825Y-8190674D01*
X4964825Y-8190674D02*
X4983872Y-8181150D01*
X4983872Y-8181150D02*
X5012444Y-8181150D01*
X5012444Y-8181150D02*
X5031491Y-8190674D01*
X5031491Y-8190674D02*
X5041015Y-8209722D01*
X5041015Y-8209722D02*
X5041015Y-8314484D01*
X5431491Y-8104960D02*
X5260063Y-8362103D01*
X5688634Y-8114484D02*
X5707682Y-8114484D01*
X5707682Y-8114484D02*
X5726729Y-8124008D01*
X5726729Y-8124008D02*
X5736253Y-8133531D01*
X5736253Y-8133531D02*
X5745777Y-8152579D01*
X5745777Y-8152579D02*
X5755301Y-8190674D01*
X5755301Y-8190674D02*
X5755301Y-8238293D01*
X5755301Y-8238293D02*
X5745777Y-8276388D01*
X5745777Y-8276388D02*
X5736253Y-8295436D01*
X5736253Y-8295436D02*
X5726729Y-8304960D01*
X5726729Y-8304960D02*
X5707682Y-8314484D01*
X5707682Y-8314484D02*
X5688634Y-8314484D01*
X5688634Y-8314484D02*
X5669586Y-8304960D01*
X5669586Y-8304960D02*
X5660063Y-8295436D01*
X5660063Y-8295436D02*
X5650539Y-8276388D01*
X5650539Y-8276388D02*
X5641015Y-8238293D01*
X5641015Y-8238293D02*
X5641015Y-8190674D01*
X5641015Y-8190674D02*
X5650539Y-8152579D01*
X5650539Y-8152579D02*
X5660063Y-8133531D01*
X5660063Y-8133531D02*
X5669586Y-8124008D01*
X5669586Y-8124008D02*
X5688634Y-8114484D01*
X5841015Y-8295436D02*
X5850539Y-8304960D01*
X5850539Y-8304960D02*
X5841015Y-8314484D01*
X5841015Y-8314484D02*
X5831491Y-8304960D01*
X5831491Y-8304960D02*
X5841015Y-8295436D01*
X5841015Y-8295436D02*
X5841015Y-8314484D01*
X5974348Y-8114484D02*
X5993396Y-8114484D01*
X5993396Y-8114484D02*
X6012444Y-8124008D01*
X6012444Y-8124008D02*
X6021967Y-8133531D01*
X6021967Y-8133531D02*
X6031491Y-8152579D01*
X6031491Y-8152579D02*
X6041015Y-8190674D01*
X6041015Y-8190674D02*
X6041015Y-8238293D01*
X6041015Y-8238293D02*
X6031491Y-8276388D01*
X6031491Y-8276388D02*
X6021967Y-8295436D01*
X6021967Y-8295436D02*
X6012444Y-8304960D01*
X6012444Y-8304960D02*
X5993396Y-8314484D01*
X5993396Y-8314484D02*
X5974348Y-8314484D01*
X5974348Y-8314484D02*
X5955301Y-8304960D01*
X5955301Y-8304960D02*
X5945777Y-8295436D01*
X5945777Y-8295436D02*
X5936253Y-8276388D01*
X5936253Y-8276388D02*
X5926729Y-8238293D01*
X5926729Y-8238293D02*
X5926729Y-8190674D01*
X5926729Y-8190674D02*
X5936253Y-8152579D01*
X5936253Y-8152579D02*
X5945777Y-8133531D01*
X5945777Y-8133531D02*
X5955301Y-8124008D01*
X5955301Y-8124008D02*
X5974348Y-8114484D01*
X6107682Y-8114484D02*
X6231491Y-8114484D01*
X6231491Y-8114484D02*
X6164825Y-8190674D01*
X6164825Y-8190674D02*
X6193396Y-8190674D01*
X6193396Y-8190674D02*
X6212444Y-8200198D01*
X6212444Y-8200198D02*
X6221967Y-8209722D01*
X6221967Y-8209722D02*
X6231491Y-8228769D01*
X6231491Y-8228769D02*
X6231491Y-8276388D01*
X6231491Y-8276388D02*
X6221967Y-8295436D01*
X6221967Y-8295436D02*
X6212444Y-8304960D01*
X6212444Y-8304960D02*
X6193396Y-8314484D01*
X6193396Y-8314484D02*
X6136253Y-8314484D01*
X6136253Y-8314484D02*
X6117206Y-8304960D01*
X6117206Y-8304960D02*
X6107682Y-8295436D01*
X6326729Y-8314484D02*
X6364825Y-8314484D01*
X6364825Y-8314484D02*
X6383872Y-8304960D01*
X6383872Y-8304960D02*
X6393396Y-8295436D01*
X6393396Y-8295436D02*
X6412444Y-8266865D01*
X6412444Y-8266865D02*
X6421967Y-8228769D01*
X6421967Y-8228769D02*
X6421967Y-8152579D01*
X6421967Y-8152579D02*
X6412444Y-8133531D01*
X6412444Y-8133531D02*
X6402920Y-8124008D01*
X6402920Y-8124008D02*
X6383872Y-8114484D01*
X6383872Y-8114484D02*
X6345777Y-8114484D01*
X6345777Y-8114484D02*
X6326729Y-8124008D01*
X6326729Y-8124008D02*
X6317206Y-8133531D01*
X6317206Y-8133531D02*
X6307682Y-8152579D01*
X6307682Y-8152579D02*
X6307682Y-8200198D01*
X6307682Y-8200198D02*
X6317206Y-8219246D01*
X6317206Y-8219246D02*
X6326729Y-8228769D01*
X6326729Y-8228769D02*
X6345777Y-8238293D01*
X6345777Y-8238293D02*
X6383872Y-8238293D01*
X6383872Y-8238293D02*
X6402920Y-8228769D01*
X6402920Y-8228769D02*
X6412444Y-8219246D01*
X6412444Y-8219246D02*
X6421967Y-8200198D01*
X6593396Y-8181150D02*
X6593396Y-8314484D01*
X6545777Y-8104960D02*
X6498158Y-8247817D01*
X6498158Y-8247817D02*
X6621967Y-8247817D01*
X6688634Y-8114484D02*
X6688634Y-8152579D01*
X6764825Y-8114484D02*
X6764825Y-8152579D01*
X7060063Y-8390674D02*
X7050539Y-8381150D01*
X7050539Y-8381150D02*
X7031491Y-8352579D01*
X7031491Y-8352579D02*
X7021968Y-8333531D01*
X7021968Y-8333531D02*
X7012444Y-8304960D01*
X7012444Y-8304960D02*
X7002920Y-8257341D01*
X7002920Y-8257341D02*
X7002920Y-8219246D01*
X7002920Y-8219246D02*
X7012444Y-8171627D01*
X7012444Y-8171627D02*
X7021968Y-8143055D01*
X7021968Y-8143055D02*
X7031491Y-8124008D01*
X7031491Y-8124008D02*
X7050539Y-8095436D01*
X7050539Y-8095436D02*
X7060063Y-8085912D01*
X7231491Y-8114484D02*
X7136253Y-8114484D01*
X7136253Y-8114484D02*
X7126729Y-8209722D01*
X7126729Y-8209722D02*
X7136253Y-8200198D01*
X7136253Y-8200198D02*
X7155301Y-8190674D01*
X7155301Y-8190674D02*
X7202920Y-8190674D01*
X7202920Y-8190674D02*
X7221968Y-8200198D01*
X7221968Y-8200198D02*
X7231491Y-8209722D01*
X7231491Y-8209722D02*
X7241015Y-8228769D01*
X7241015Y-8228769D02*
X7241015Y-8276388D01*
X7241015Y-8276388D02*
X7231491Y-8295436D01*
X7231491Y-8295436D02*
X7221968Y-8304960D01*
X7221968Y-8304960D02*
X7202920Y-8314484D01*
X7202920Y-8314484D02*
X7155301Y-8314484D01*
X7155301Y-8314484D02*
X7136253Y-8304960D01*
X7136253Y-8304960D02*
X7126729Y-8295436D01*
X7479110Y-8314484D02*
X7479110Y-8114484D01*
X7564825Y-8314484D02*
X7564825Y-8209722D01*
X7564825Y-8209722D02*
X7555301Y-8190674D01*
X7555301Y-8190674D02*
X7536253Y-8181150D01*
X7536253Y-8181150D02*
X7507682Y-8181150D01*
X7507682Y-8181150D02*
X7488634Y-8190674D01*
X7488634Y-8190674D02*
X7479110Y-8200198D01*
X7688634Y-8314484D02*
X7669587Y-8304960D01*
X7669587Y-8304960D02*
X7660063Y-8295436D01*
X7660063Y-8295436D02*
X7650539Y-8276388D01*
X7650539Y-8276388D02*
X7650539Y-8219246D01*
X7650539Y-8219246D02*
X7660063Y-8200198D01*
X7660063Y-8200198D02*
X7669587Y-8190674D01*
X7669587Y-8190674D02*
X7688634Y-8181150D01*
X7688634Y-8181150D02*
X7717206Y-8181150D01*
X7717206Y-8181150D02*
X7736253Y-8190674D01*
X7736253Y-8190674D02*
X7745777Y-8200198D01*
X7745777Y-8200198D02*
X7755301Y-8219246D01*
X7755301Y-8219246D02*
X7755301Y-8276388D01*
X7755301Y-8276388D02*
X7745777Y-8295436D01*
X7745777Y-8295436D02*
X7736253Y-8304960D01*
X7736253Y-8304960D02*
X7717206Y-8314484D01*
X7717206Y-8314484D02*
X7688634Y-8314484D01*
X7869587Y-8314484D02*
X7850539Y-8304960D01*
X7850539Y-8304960D02*
X7841015Y-8285912D01*
X7841015Y-8285912D02*
X7841015Y-8114484D01*
X8021968Y-8304960D02*
X8002920Y-8314484D01*
X8002920Y-8314484D02*
X7964825Y-8314484D01*
X7964825Y-8314484D02*
X7945777Y-8304960D01*
X7945777Y-8304960D02*
X7936253Y-8285912D01*
X7936253Y-8285912D02*
X7936253Y-8209722D01*
X7936253Y-8209722D02*
X7945777Y-8190674D01*
X7945777Y-8190674D02*
X7964825Y-8181150D01*
X7964825Y-8181150D02*
X8002920Y-8181150D01*
X8002920Y-8181150D02*
X8021968Y-8190674D01*
X8021968Y-8190674D02*
X8031491Y-8209722D01*
X8031491Y-8209722D02*
X8031491Y-8228769D01*
X8031491Y-8228769D02*
X7936253Y-8247817D01*
X8107682Y-8304960D02*
X8126730Y-8314484D01*
X8126730Y-8314484D02*
X8164825Y-8314484D01*
X8164825Y-8314484D02*
X8183872Y-8304960D01*
X8183872Y-8304960D02*
X8193396Y-8285912D01*
X8193396Y-8285912D02*
X8193396Y-8276388D01*
X8193396Y-8276388D02*
X8183872Y-8257341D01*
X8183872Y-8257341D02*
X8164825Y-8247817D01*
X8164825Y-8247817D02*
X8136253Y-8247817D01*
X8136253Y-8247817D02*
X8117206Y-8238293D01*
X8117206Y-8238293D02*
X8107682Y-8219246D01*
X8107682Y-8219246D02*
X8107682Y-8209722D01*
X8107682Y-8209722D02*
X8117206Y-8190674D01*
X8117206Y-8190674D02*
X8136253Y-8181150D01*
X8136253Y-8181150D02*
X8164825Y-8181150D01*
X8164825Y-8181150D02*
X8183872Y-8190674D01*
X8260063Y-8390674D02*
X8269587Y-8381150D01*
X8269587Y-8381150D02*
X8288634Y-8352579D01*
X8288634Y-8352579D02*
X8298158Y-8333531D01*
X8298158Y-8333531D02*
X8307682Y-8304960D01*
X8307682Y-8304960D02*
X8317206Y-8257341D01*
X8317206Y-8257341D02*
X8317206Y-8219246D01*
X8317206Y-8219246D02*
X8307682Y-8171627D01*
X8307682Y-8171627D02*
X8298158Y-8143055D01*
X8298158Y-8143055D02*
X8288634Y-8124008D01*
X8288634Y-8124008D02*
X8269587Y-8095436D01*
X8269587Y-8095436D02*
X8260063Y-8085912D01*
M02*
