%TF.GenerationSoftware,KiCad,Pcbnew,10.0.4*%
%TF.CreationDate,2026-07-10T12:09:20+08:00*%
%TF.ProjectId,PL18_ELRS,504c3138-5f45-44c5-9253-2e6b69636164,rev?*%
%TF.SameCoordinates,Original*%
%TF.FileFunction,Legend,Bot*%
%TF.FilePolarity,Positive*%
%FSLAX46Y46*%
G04 Gerber Fmt 4.6, Leading zero omitted, Abs format (unit mm)*
G04 Created by KiCad (PCBNEW 10.0.4) date 2026-07-10 12:09:20*
%MOMM*%
%LPD*%
G01*
G04 APERTURE LIST*
%ADD10C,0.150000*%
%ADD11C,0.120000*%
G04 APERTURE END LIST*
D10*
X56854819Y-66666666D02*
X57569104Y-66666666D01*
X57569104Y-66666666D02*
X57711961Y-66619047D01*
X57711961Y-66619047D02*
X57807200Y-66523809D01*
X57807200Y-66523809D02*
X57854819Y-66380952D01*
X57854819Y-66380952D02*
X57854819Y-66285714D01*
X57854819Y-67666666D02*
X57854819Y-67095238D01*
X57854819Y-67380952D02*
X56854819Y-67380952D01*
X56854819Y-67380952D02*
X56997676Y-67285714D01*
X56997676Y-67285714D02*
X57092914Y-67190476D01*
X57092914Y-67190476D02*
X57140533Y-67095238D01*
X48967619Y-42309726D02*
X48967619Y-43337821D01*
X48967619Y-43337821D02*
X48907142Y-43458773D01*
X48907142Y-43458773D02*
X48846666Y-43519250D01*
X48846666Y-43519250D02*
X48725714Y-43579726D01*
X48725714Y-43579726D02*
X48483809Y-43579726D01*
X48483809Y-43579726D02*
X48362857Y-43519250D01*
X48362857Y-43519250D02*
X48302380Y-43458773D01*
X48302380Y-43458773D02*
X48241904Y-43337821D01*
X48241904Y-43337821D02*
X48241904Y-42309726D01*
X47697619Y-42430678D02*
X47637143Y-42370202D01*
X47637143Y-42370202D02*
X47516190Y-42309726D01*
X47516190Y-42309726D02*
X47213809Y-42309726D01*
X47213809Y-42309726D02*
X47092857Y-42370202D01*
X47092857Y-42370202D02*
X47032381Y-42430678D01*
X47032381Y-42430678D02*
X46971904Y-42551630D01*
X46971904Y-42551630D02*
X46971904Y-42672583D01*
X46971904Y-42672583D02*
X47032381Y-42854011D01*
X47032381Y-42854011D02*
X47758095Y-43579726D01*
X47758095Y-43579726D02*
X46971904Y-43579726D01*
%TO.C,J1*%
D11*
X39500000Y-64320000D02*
X39500000Y-70070000D01*
X39500000Y-64320000D02*
X56500000Y-64320000D01*
X39500000Y-70070000D02*
X56500000Y-70070000D01*
X56500000Y-64320000D02*
X56500000Y-70070000D01*
%TO.C,U2*%
X36750000Y-25000000D02*
X36750000Y-31500000D01*
X36750000Y-25000000D02*
X59250000Y-25000000D01*
X36750000Y-58500000D02*
X36750000Y-63500000D01*
X36750000Y-63500000D02*
X59250000Y-63500000D01*
X59250000Y-25000000D02*
X59250000Y-31500000D01*
X59250000Y-58500000D02*
X59250000Y-63500000D01*
%TD*%
M02*
