%TF.GenerationSoftware,KiCad,Pcbnew,10.0.4*%
%TF.CreationDate,2026-07-10T12:09:20+08:00*%
%TF.ProjectId,PL18_ELRS,504c3138-5f45-44c5-9253-2e6b69636164,rev?*%
%TF.SameCoordinates,Original*%
%TF.FileFunction,Paste,Top*%
%TF.FilePolarity,Positive*%
%FSLAX46Y46*%
G04 Gerber Fmt 4.6, Leading zero omitted, Abs format (unit mm)*
G04 Created by KiCad (PCBNEW 10.0.4) date 2026-07-10 12:09:20*
%MOMM*%
%LPD*%
G01*
G04 APERTURE LIST*
G04 Aperture macros list*
%AMRoundRect*
0 Rectangle with rounded corners*
0 $1 Rounding radius*
0 $2 $3 $4 $5 $6 $7 $8 $9 X,Y pos of 4 corners*
0 Add a 4 corners polygon primitive as box body*
4,1,4,$2,$3,$4,$5,$6,$7,$8,$9,$2,$3,0*
0 Add four circle primitives for the rounded corners*
1,1,$1+$1,$2,$3*
1,1,$1+$1,$4,$5*
1,1,$1+$1,$6,$7*
1,1,$1+$1,$8,$9*
0 Add four rect primitives between the rounded corners*
20,1,$1+$1,$2,$3,$4,$5,0*
20,1,$1+$1,$4,$5,$6,$7,0*
20,1,$1+$1,$6,$7,$8,$9,0*
20,1,$1+$1,$8,$9,$2,$3,0*%
G04 Aperture macros list end*
%ADD10RoundRect,0.237500X0.237500X-0.250000X0.237500X0.250000X-0.237500X0.250000X-0.237500X-0.250000X0*%
%ADD11R,0.700000X0.700000*%
%ADD12R,0.900000X1.000000*%
%ADD13R,1.500000X1.500000*%
G04 APERTURE END LIST*
D10*
%TO.C,R1*%
X53000000Y-34412500D03*
X53000000Y-32587500D03*
%TD*%
D11*
%TO.C,D2*%
X50085000Y-27000000D03*
X50085000Y-28100000D03*
X51915000Y-28100000D03*
X51915000Y-27000000D03*
%TD*%
%TO.C,D1*%
X44085000Y-26950000D03*
X44085000Y-28050000D03*
X45915000Y-28050000D03*
X45915000Y-26950000D03*
%TD*%
D12*
%TO.C,SW1*%
X45800000Y-32400000D03*
X50300000Y-32400000D03*
X45800000Y-34600000D03*
X50300000Y-34600000D03*
%TD*%
D13*
%TO.C,U1*%
X57088200Y-61288000D03*
X57088200Y-58658000D03*
X57088200Y-56118000D03*
X57088200Y-53578000D03*
X57088200Y-51038000D03*
X57088200Y-48498000D03*
X57088200Y-45958000D03*
X57088200Y-43418000D03*
X57088200Y-40878000D03*
X38952200Y-61198000D03*
X38952200Y-58658000D03*
X38952200Y-56118000D03*
X38952200Y-53578000D03*
X38952200Y-51038000D03*
X38952200Y-48498000D03*
X38952200Y-45958000D03*
X38952200Y-43418000D03*
X38952200Y-40878000D03*
X53100000Y-39100000D03*
X50560000Y-39100000D03*
X48020000Y-39100000D03*
X45480000Y-39100000D03*
X42940000Y-39100000D03*
%TD*%
D10*
%TO.C,R2*%
X43000000Y-34412500D03*
X43000000Y-32587500D03*
%TD*%
M02*
