M48
; DRILL file KiCad 10.0.4 date 2026-07-10T12:09:22
; FORMAT={-:-/ absolute / metric / decimal}
; #@! TF.CreationDate,2026-07-10T12:09:22+08:00
; #@! TF.GenerationSoftware,Kicad,Pcbnew,10.0.4
; #@! TF.FileFunction,Plated,1,2,PTH
FMAT,2
METRIC
; #@! TA.AperFunction,Plated,PTH,ViaDrill
T1C0.400
; #@! TA.AperFunction,Plated,PTH,ViaDrill
T2C0.600
; #@! TA.AperFunction,Plated,PTH,ComponentDrill
T3C1.000
%
G90
G05
T1
X37.0Y-67.0
X38.0Y-39.3
X38.0Y-64.0
X38.7Y-35.1
X38.7Y-36.4
X39.0Y-69.0
X40.0Y-39.0
X40.2Y-45.958
X40.2Y-48.498
X41.0Y-35.0
X41.0Y-53.7
X41.25Y-41.7
X41.7Y-44.1
X41.8Y-46.3
X42.0Y-55.0
X42.0Y-58.0
X42.0Y-62.0
X42.0Y-66.0
X42.002Y-48.498
X42.25Y-51.0
X42.6Y-27.6
X42.6Y-52.5
X43.0Y-26.0
X43.0Y-30.8
X43.0Y-44.1
X43.8Y-49.2
X44.0Y-32.6
X44.5Y-40.75
X45.0Y-36.4
X45.0Y-53.0
X45.0Y-56.9
X45.0Y-61.0
X45.6Y-46.9
X45.7Y-48.5
X45.9Y-30.8
X47.5Y-36.8
X48.0Y-28.0
X48.0Y-32.0
X48.0Y-48.5
X48.0Y-55.0
X48.0Y-58.0
X48.02Y-46.4
X48.3Y-52.0
X49.3Y-35.6
X50.56Y-48.36
X50.718Y-56.118
X51.0Y-64.0
X51.3Y-29.9
X51.6Y-52.0
X52.75Y-55.0
X53.0Y-26.0
X53.0Y-31.0
X53.1Y-40.6
X53.25Y-42.0
X53.75Y-46.25
X53.75Y-48.75
X54.0Y-52.5
X54.0Y-58.5
X54.0Y-66.0
X55.8Y-40.878
X55.8Y-56.118
X56.0Y-33.0
X56.0Y-37.0
X56.0Y-39.0
X57.0Y-64.0
X57.0Y-69.0
X59.0Y-67.0
X59.2Y-61.0
T2
X48.0Y-64.3
T3
X43.0Y-68.82
X45.5Y-68.82
X48.0Y-68.82
X50.5Y-68.82
X53.0Y-68.82
M30
