%TF.GenerationSoftware,KiCad,Pcbnew,10.0.4*%
%TF.CreationDate,2026-07-10T12:09:22+08:00*%
%TF.ProjectId,PL18_ELRS,504c3138-5f45-44c5-9253-2e6b69636164,rev?*%
%TF.SameCoordinates,Original*%
%TF.FileFunction,Drillmap*%
%TF.FilePolarity,Positive*%
%FSLAX45Y45*%
G04 Gerber Fmt 4.5, Leading zero omitted, Abs format (unit mm)*
G04 Created by KiCad (PCBNEW 10.0.4) date 2026-07-10 12:09:22*
%MOMM*%
%LPD*%
G01*
G04 APERTURE LIST*
%ADD10C,0.100000*%
%ADD11C,0.200000*%
G04 APERTURE END LIST*
D10*
X3490000Y-6900000D02*
X3490000Y-2850000D01*
X3490000Y-6900000D02*
G75*
G02*
X3640000Y-7050000I0J-150000D01*
G01*
X3640000Y-2850000D02*
X3490000Y-2850000D01*
X3640000Y-3100000D02*
X3640000Y-2850000D01*
X3690000Y-3150000D02*
G75*
G02*
X3640000Y-3100000I0J50000D01*
G01*
X4140000Y-3150000D02*
X3690000Y-3150000D01*
X4190000Y-2500000D02*
X4190000Y-3100000D01*
X4190000Y-2500000D02*
X5410000Y-2500000D01*
X4190000Y-3100000D02*
G75*
G02*
X4140000Y-3150000I-50000J0D01*
G01*
X5410000Y-3100000D02*
X5410000Y-2500000D01*
X5460000Y-3150000D02*
G75*
G02*
X5410000Y-3100000I0J50000D01*
G01*
X5910645Y-3150000D02*
X5460000Y-3150000D01*
X5960000Y-2850000D02*
X5960000Y-3100000D01*
X5960000Y-3100000D02*
G75*
G02*
X5910000Y-3150000I-50000J0D01*
G01*
X5960000Y-7050000D02*
X3640000Y-7050000D01*
X5960000Y-7050000D02*
G75*
G02*
X6110000Y-6900000I150000J0D01*
G01*
X6110000Y-2850000D02*
X5960000Y-2850000D01*
X6110000Y-2850000D02*
X6110000Y-6900000D01*
D11*
X3745777Y-7366484D02*
X3745777Y-7166484D01*
X3745777Y-7166484D02*
X3793396Y-7166484D01*
X3793396Y-7166484D02*
X3821967Y-7176008D01*
X3821967Y-7176008D02*
X3841015Y-7195055D01*
X3841015Y-7195055D02*
X3850539Y-7214103D01*
X3850539Y-7214103D02*
X3860062Y-7252198D01*
X3860062Y-7252198D02*
X3860062Y-7280769D01*
X3860062Y-7280769D02*
X3850539Y-7318865D01*
X3850539Y-7318865D02*
X3841015Y-7337912D01*
X3841015Y-7337912D02*
X3821967Y-7356960D01*
X3821967Y-7356960D02*
X3793396Y-7366484D01*
X3793396Y-7366484D02*
X3745777Y-7366484D01*
X3945777Y-7366484D02*
X3945777Y-7233150D01*
X3945777Y-7271246D02*
X3955301Y-7252198D01*
X3955301Y-7252198D02*
X3964824Y-7242674D01*
X3964824Y-7242674D02*
X3983872Y-7233150D01*
X3983872Y-7233150D02*
X4002920Y-7233150D01*
X4069586Y-7366484D02*
X4069586Y-7233150D01*
X4069586Y-7166484D02*
X4060062Y-7176008D01*
X4060062Y-7176008D02*
X4069586Y-7185531D01*
X4069586Y-7185531D02*
X4079110Y-7176008D01*
X4079110Y-7176008D02*
X4069586Y-7166484D01*
X4069586Y-7166484D02*
X4069586Y-7185531D01*
X4193396Y-7366484D02*
X4174348Y-7356960D01*
X4174348Y-7356960D02*
X4164824Y-7337912D01*
X4164824Y-7337912D02*
X4164824Y-7166484D01*
X4298158Y-7366484D02*
X4279110Y-7356960D01*
X4279110Y-7356960D02*
X4269586Y-7337912D01*
X4269586Y-7337912D02*
X4269586Y-7166484D01*
X4526729Y-7366484D02*
X4526729Y-7166484D01*
X4526729Y-7166484D02*
X4593396Y-7309341D01*
X4593396Y-7309341D02*
X4660063Y-7166484D01*
X4660063Y-7166484D02*
X4660063Y-7366484D01*
X4841015Y-7366484D02*
X4841015Y-7261722D01*
X4841015Y-7261722D02*
X4831491Y-7242674D01*
X4831491Y-7242674D02*
X4812444Y-7233150D01*
X4812444Y-7233150D02*
X4774348Y-7233150D01*
X4774348Y-7233150D02*
X4755301Y-7242674D01*
X4841015Y-7356960D02*
X4821967Y-7366484D01*
X4821967Y-7366484D02*
X4774348Y-7366484D01*
X4774348Y-7366484D02*
X4755301Y-7356960D01*
X4755301Y-7356960D02*
X4745777Y-7337912D01*
X4745777Y-7337912D02*
X4745777Y-7318865D01*
X4745777Y-7318865D02*
X4755301Y-7299817D01*
X4755301Y-7299817D02*
X4774348Y-7290293D01*
X4774348Y-7290293D02*
X4821967Y-7290293D01*
X4821967Y-7290293D02*
X4841015Y-7280769D01*
X4936253Y-7233150D02*
X4936253Y-7433150D01*
X4936253Y-7242674D02*
X4955301Y-7233150D01*
X4955301Y-7233150D02*
X4993396Y-7233150D01*
X4993396Y-7233150D02*
X5012444Y-7242674D01*
X5012444Y-7242674D02*
X5021967Y-7252198D01*
X5021967Y-7252198D02*
X5031491Y-7271246D01*
X5031491Y-7271246D02*
X5031491Y-7328388D01*
X5031491Y-7328388D02*
X5021967Y-7347436D01*
X5021967Y-7347436D02*
X5012444Y-7356960D01*
X5012444Y-7356960D02*
X4993396Y-7366484D01*
X4993396Y-7366484D02*
X4955301Y-7366484D01*
X4955301Y-7366484D02*
X4936253Y-7356960D01*
X5117205Y-7347436D02*
X5126729Y-7356960D01*
X5126729Y-7356960D02*
X5117205Y-7366484D01*
X5117205Y-7366484D02*
X5107682Y-7356960D01*
X5107682Y-7356960D02*
X5117205Y-7347436D01*
X5117205Y-7347436D02*
X5117205Y-7366484D01*
X5117205Y-7242674D02*
X5126729Y-7252198D01*
X5126729Y-7252198D02*
X5117205Y-7261722D01*
X5117205Y-7261722D02*
X5107682Y-7252198D01*
X5107682Y-7252198D02*
X5117205Y-7242674D01*
X5117205Y-7242674D02*
X5117205Y-7261722D01*
M02*
